#N canvas 2218 215 523 614 10;
#X msg 34 17 devices;
#X msg 103 17 open 2;
#X obj 34 230 knob 32 32 0 127 0 0 empty empty empty 0 -8 0 8 -262144
-1 -1 0 1;
#X floatatom 34 185 5 0 0 0 - - -;
#X floatatom 93 185 5 0 0 0 - - -;
#X floatatom 153 185 5 0 0 0 - - -;
#X msg 170 17 close;
#X obj 34 61 comport 9600;
#X obj 93 230 knob 32 32 0 127 0 0 empty empty empty 0 -8 0 8 -262144
-1 -1 0 1;
#X obj 153 230 knob 32 32 0 127 0 0 empty empty empty 0 -8 0 8 -262144
-1 -1 0 1;
#X obj 153 292 ctlout 3;
#X obj 34 292 ctlout 1;
#X obj 93 292 ctlout 2;
#X obj 34 105 serialize 9;
#X obj 34 149 unpack fff fff fff;
#X connect 0 0 7 0;
#X connect 1 0 7 0;
#X connect 2 0 11 0;
#X connect 3 0 2 0;
#X connect 4 0 8 0;
#X connect 5 0 9 0;
#X connect 6 0 7 0;
#X connect 7 0 13 0;
#X connect 8 0 12 0;
#X connect 9 0 10 0;
#X connect 13 0 14 0;
#X connect 14 0 3 0;
#X connect 14 1 4 0;
#X connect 14 2 5 0;
